{
  "accessors": [
    {
      "bufferView": 1,
      "componentType": 5126,
      "count": 3014,
      "max": [
        42.250999450683594,
        -0.0,
        24.139999389648438
      ],
      "min": [
        31.325000762939453,
        -12.0,
        -22.155000686645508
      ],
      "type": "VEC3"
    },
    {
      "bufferView": 1,
      "byteOffset": 36168,
      "componentType": 5126,
      "count": 3014,
      "max": [
        0.9994289875030518,
        1.0,
        0.9996859431266785
      ],
      "min": [
        -0.9999625086784363,
        -1.0,
        -0.9996755123138428
      ],
      "type": "VEC3"
    },
    {
      "bufferView": 0,
      "componentType": 5125,
      "count": 12666,
      "type": "SCALAR"
    },
    {
      "bufferView": 1,
      "byteOffset": 72336,
      "componentType": 5126,
      "count": 57385,
      "max": [
        38.10100173950195,
        -3.2699999809265137,
        38.099998474121094
      ],
      "min": [
        -38.099998474121094,
        -16.089000701904297,
        -38.099998474121094
      ],
      "type": "VEC3"
    },
    {
      "bufferView": 1,
      "byteOffset": 760956,
      "componentType": 5126,
      "count": 57385,
      "max": [
        1.0,
        1.0,
        1.0
      ],
      "min": [
        -1.0,
        -1.0,
        -1.0
      ],
      "type": "VEC3"
    },
    {
      "bufferView": 0,
      "byteOffset": 50664,
      "componentType": 5125,
      "count": 171612,
      "type": "SCALAR"
    },
    {
      "bufferView": 1,
      "byteOffset": 1449576,
      "componentType": 5126,
      "count": 12235,
      "max": [
        43.5620002746582,
        -0.3199999928474426,
        26.18950080871582
      ],
      "min": [
        24.441999435424805,
        -11.520000457763672,
        -24.189899444580078
      ],
      "type": "VEC3"
    },
    {
      "bufferView": 1,
      "byteOffset": 1596396,
      "componentType": 5126,
      "count": 12235,
      "max": [
        1.0,
        1.0,
        1.0
      ],
      "min": [
        -1.0,
        -1.0,
        -1.0
      ],
      "type": "VEC3"
    },
    {
      "bufferView": 0,
      "byteOffset": 737112,
      "componentType": 5125,
      "count": 45018,
      "type": "SCALAR"
    },
    {
      "bufferView": 1,
      "byteOffset": 1743216,
      "componentType": 5126,
      "count": 2743,
      "max": [
        35.557899475097656,
        -10.771900177001953,
        17.562700271606445
      ],
      "min": [
        28.723400115966797,
        -11.881999969482422,
        -16.728599548339844
      ],
      "type": "VEC3"
    },
    {
      "bufferView": 1,
      "byteOffset": 1776132,
      "componentType": 5126,
      "count": 2743,
      "max": [
        0.9984397888183594,
        0.9999613761901855,
        0.9999990463256836
      ],
      "min": [
        -0.9998182654380798,
        -0.9999968409538269,
        -0.9999996423721313
      ],
      "type": "VEC3"
    },
    {
      "bufferView": 0,
      "byteOffset": 917184,
      "componentType": 5125,
      "count": 11082,
      "type": "SCALAR"
    }
  ],
  "asset": {
    "extras": {
      "author": "DRIVER-FIRE (https://sketchfab.com/DRIVER-FIRE)",
      "license": "CC-BY-4.0 (http://creativecommons.org/licenses/by/4.0/)",
      "source": "https://sketchfab.com/3d-models/6-lug-brake-rotor-and-brembo-brake-calipers-ef37be6ddce44f49b6f616145c1e16af",
      "title": "6- Lug Brake Rotor and Brembo brake calipers"
    },
    "generator": "Sketchfab-17.8.0",
    "version": "2.0"
  },
  "bufferViews": [
    {
      "buffer": 0,
      "byteLength": 961512,
      "name": "floatBufferViews",
      "target": 34963
    },
    {
      "buffer": 0,
      "byteLength": 1809048,
      "byteOffset": 961512,
      "byteStride": 12,
      "name": "floatBufferViews",
      "target": 34962
    }
  ],
  "buffers": [
    {
      "byteLength": 2770560,
      "uri": "scene.bin"
    }
  ],
  "extensionsUsed": [
    "KHR_materials_clearcoat",
    "KHR_materials_specular"
  ],
  "materials": [
    {
      "doubleSided": true,
      "name": "color_12568524",
      "pbrMetallicRoughness": {
        "baseColorFactor": [
          0.74902,
          0.780392,
          0.8,
          1.0
        ],
        "metallicFactor": 0.0
      }
    },
    {
      "doubleSided": true,
      "extensions": {
        "KHR_materials_clearcoat": {
          "clearcoatFactor": 1.0,
          "clearcoatRoughnessFactor": 0.2176343146921548
        },
        "KHR_materials_specular": {
          "specularColorFactor": [
            1.0,
            1.0,
            1.0
          ],
          "specularFactor": 1.0
        }
      },
      "name": "color_14541540",
      "pbrMetallicRoughness": {
        "baseColorFactor": [
          0.866667,
          0.886275,
          0.894118,
          1.0
        ],
        "metallicFactor": 0.6507090231291821,
        "roughnessFactor": 0.42858634602125956
      }
    },
    {
      "doubleSided": true,
      "extensions": {
        "KHR_materials_clearcoat": {
          "clearcoatFactor": 1.0,
          "clearcoatRoughnessFactor": 0.04
        },
        "KHR_materials_specular": {
          "specularColorFactor": [
            1.0,
            1.0,
            1.0
          ],
          "specularFactor": 1.0
        }
      },
      "name": "color_15277357",
      "pbrMetallicRoughness": {
        "baseColorFactor": [
          0.7136670366106068,
          0.04837188780248973,
          0.04837188780248973,
          1.0
        ],
        "metallicFactor": 0.0,
        "roughnessFactor": 0.0
      }
    },
    {
      "doubleSided": true,
      "extensions": {
        "KHR_materials_clearcoat": {
          "clearcoatFactor": 1.0,
          "clearcoatRoughnessFactor": 0.04
        }
      },
      "name": "color_16448250",
      "pbrMetallicRoughness": {
        "baseColorFactor": [
          0.980392,
          0.980392,
          0.980392,
          1.0
        ],
        "metallicFactor": 0.0,
        "roughnessFactor": 0.0
      }
    }
  ],
  "meshes": [
    {
      "name": "Object_0",
      "primitives": [
        {
          "attributes": {
            "NORMAL": 1,
            "POSITION": 0
          },
          "indices": 2,
          "material": 0,
          "mode": 4
        }
      ]
    },
    {
      "name": "Object_1",
      "primitives": [
        {
          "attributes": {
            "NORMAL": 4,
            "POSITION": 3
          },
          "indices": 5,
          "material": 1,
          "mode": 4
        }
      ]
    },
    {
      "name": "Object_2",
      "primitives": [
        {
          "attributes": {
            "NORMAL": 7,
            "POSITION": 6
          },
          "indices": 8,
          "material": 2,
          "mode": 4
        }
      ]
    },
    {
      "name": "Object_3",
      "primitives": [
        {
          "attributes": {
            "NORMAL": 10,
            "POSITION": 9
          },
          "indices": 11,
          "material": 3,
          "mode": 4
        }
      ]
    }
  ],
  "nodes": [
    {
      "children": [
        1
      ],
      "matrix": [
        1.0,
        0.0,
        0.0,
        0.0,
        0.0,
        2.220446049250313e-16,
        -1.0,
        0.0,
        0.0,
        1.0,
        2.220446049250313e-16,
        0.0,
        0.0,
        0.0,
        0.0,
        1.0
      ],
      "name": "Sketchfab_model"
    },
    {
      "children": [
        2,
        3,
        4,
        5
      ],
      "name": "tinker.obj.cleaner.materialmerger.gles"
    },
    {
      "mesh": 0,
      "name": "Object_2"
    },
    {
      "mesh": 1,
      "name": "Object_3"
    },
    {
      "mesh": 2,
      "name": "Object_4"
    },
    {
      "mesh": 3,
      "name": "Object_5"
    }
  ],
  "scene": 0,
  "scenes": [
    {
      "name": "Sketchfab_Scene",
      "nodes": [
        0
      ]
    }
  ]
}
